inDegrees=yes
name=ik_lifting_orientations
DataType=double
version=3
OpenSimVersion=4.5-2024-01-10-34fd6af
endheader
time	pelvis_tilt	pelvis_list	pelvis_rotation	pelvis_tx	pelvis_ty	pelvis_tz	hip_flexion_r	hip_adduction_r	hip_rotation_r	knee_angle_r	knee_angle_r_beta	ankle_angle_r	subtalar_angle_r	mtp_angle_r	hip_flexion_l	hip_adduction_l	hip_rotation_l	knee_angle_l	knee_angle_l_beta	ankle_angle_l	subtalar_angle_l	mtp_angle_l	lumbar_extension	lumbar_bending	lumbar_rotation	arm_flex_r	arm_add_r	arm_rot_r	elbow_flex_r	pro_sup_r	wrist_flex_r	wrist_dev_r	arm_flex_l	arm_add_l	arm_rot_l	elbow_flex_l	pro_sup_l	wrist_flex_l	wrist_dev_l
1.11	2.15547161751123	-0.08725897001530139	5.858065838846358	0	0.9399999998679526	0	41.89233210185697	-10.2482825452103	0	61.82789646891159	1.079100362964683	-5.093097116179085	0	0	41.89233210185697	-10.2482825452103	0	61.82789646891159	1.079100362964683	-5.093097116179085	0	0	16.76362683063027	-2.374744894934143	-4.154649285094444	-15.21904761285457	-46.70203537398543	-21.18822140712244	92.5341095696043	0.480309037437036	0	0	0	-10.58600217841731	0	89.55913088185061	0.480309037437036	0	0
1.12	2.141447683366112	-0.09494394697815861	5.851416518528529	0	0.9399999998679526	0	41.91134204428943	-10.24436969005803	0	61.81715868498158	1.078912953280737	-5.091305739399991	0	0	41.91134204428943	-10.24436969005803	0	61.81715868498158	1.078912953280737	-5.091305739399991	0	0	16.18362053148164	-2.018724496781628	-4.891965104606284	-16.23482560319418	-49.68207144565023	-26.01162664605269	101.9589056519126	0.4780929074940163	0	0	0	-10.60201227178182	0	89.56116424558688	0.4780929074940163	0	0
1.13	2.97556734527975	-0.8487221766087174	6.055612295286824	0	0.9399999998679526	0	41.95176702789941	-10.23655458319316	0	61.79373012712973	1.078504047807228	-5.087791915723027	0	0	41.95176702789941	-10.23655458319316	0	61.79373012712973	1.078504047807228	-5.087791915723027	0	0	15.55065966682719	0.2293943230496105	-4.678681486680574	-10.04694256414183	-52.80167350013912	-18.34215007135523	95.56142900937427	0.4733195390485315	0	0	0	-10.6368120150736	0	89.56554395078594	0.4733195390485315	0	0
1.14	2.205480025622419	-1.681107928064851	5.964026427689727	0	0.9399999998679526	0	41.98198795866023	-10.23067407053229	0	61.7764582612623	1.078202596879879	-5.085148144533238	0	0	41.98198795866023	-10.23067407053229	0	61.7764582612623	1.078202596879879	-5.085148144533238	0	0	16.61316829626685	3.076951340068488	-5.721150837731355	-6.559726024186009	-56.55095900759321	-16.59521581690963	97.87069709275805	0.469760414445598	0	0	0	-10.66270367881989	0	89.56880955162816	0.469760414445598	0	0
1.15	2.210552362796684	-1.688045171109069	5.967692287299132	0	0.9399999998679526	0	41.98707613261838	-10.22931761522299	0	61.77411249909051	1.078161655606512	-5.084495349184333	0	0	41.98707613261838	-10.22931761522299	0	61.77411249909051	1.078161655606512	-5.084495349184333	0	0	15.2517871507554	5.631840930953375	-7.290477374509127	7.24733429287029	-59.27983009492769	-1.719888402219046	91.23387004318444	0.4692103469278079	0	0	0	-10.66644490203054	0	89.56931425412643	0.4692103469278079	0	0
1.16	2.206315035227778	-1.679841255022917	5.962814873276747	0	0.9399999998679526	0	42.0244692506707	-10.22201434882773	0	61.75297367666118	1.077792713555126	-5.081215575461443	0	0	42.0244692506707	-10.22201434882773	0	61.75297367666118	1.077792713555126	-5.081215575461443	0	0	14.29449101690996	7.931199324944643	-8.078383451271341	18.27466851354497	-62.39343689001517	8.337219197341943	91.91565502397552	0.4648158988523979	0	0	0	-10.6983559271184	0	89.57334628857949	0.4648158988523979	0	0
1.17	2.202028579423713	-1.683914840367896	5.961980199345318	0	0.9399999998679526	0	42.03123494764617	-10.22025074834896	0	61.7498572323065	1.077738321340181	-5.080374338166788	0	0	42.03123494764617	-10.22025074834896	0	61.7498572323065	1.077738321340181	-5.080374338166788	0	0	14.62004946918974	10.03741256279338	-8.957960635151444	25.87202376800981	-64.75482736311999	14.90253848077439	93.40209826901773	0.464082262724675	0	0	0	-10.70335448835217	0	89.57401942051816	0.464082262724675	0	0
1.18	2.202878086506914	-1.67953522493493	5.959162592106337	0	0.9399999998679526	0	42.05569088121414	-10.21535430826353	0	61.73629041755285	1.077501535753722	-5.078164837330284	0	0	42.05569088121414	-10.21535430826353	0	61.73629041755285	1.077501535753722	-5.078164837330284	0	0	14.21825776395547	11.9502137912444	-9.025626121643178	39.36596038231372	-64.32131116581095	30.3333630626514	88.64938934812749	0.4612266166843381	0	0	0	-10.72399085306496	0	89.57663955898873	0.4612266166843381	0	0
1.19	1.209425122095931	-1.002092115412917	6.60334574831464	0	0.9399999998679526	0	42.07134515628577	-10.2121671577173	0	61.72776727121475	1.077352778787493	-5.07672421649899	0	0	42.07134515628577	-10.2121671577173	0	61.72776727121475	1.077352778787493	-5.07672421649899	0	0	15.23553370538987	11.0187205089869	-9.486604860117581	45.74493379194138	-62.97105418979448	36.93896118769717	87.54833854356869	0.4594089627276384	0	0	0	-10.73706712521847	0	89.57830730936976	0.4594089627276384	0	0
1.2	1.106744538942477	-0.8160712890362811	7.358069179566829	0	0.9399999998679526	0	42.08636694323794	-10.2091614291815	0	61.71956594914486	1.077209638714357	-5.075373723538845	0	0	42.08636694323794	-10.2091614291815	0	61.71956594914486	1.077209638714357	-5.075373723538845	0	0	15.44258553287674	10.64817189151979	-10.17824635697405	51.25577204600035	-61.79746252999349	41.94142273097879	88.61088547977971	0.4576596688647881	0	0	0	-10.74967600794827	0	89.57991233742949	0.4576596688647881	0	0
